<svg width="18" height="13" viewBox="0 0 18 13" fill="none" xmlns="http://www.w3.org/2000/svg">
<path d="M0.695312 12V4H3.89844C4.48698 4 4.97786 4.08724 5.37109 4.26172C5.76432 4.4362 6.0599 4.67839 6.25781 4.98828C6.45573 5.29557 6.55469 5.64974 6.55469 6.05078C6.55469 6.36328 6.49219 6.63802 6.36719 6.875C6.24219 7.10937 6.07031 7.30208 5.85156 7.45312C5.63542 7.60156 5.38802 7.70703 5.10938 7.76953V7.84766C5.41406 7.86068 5.69922 7.94661 5.96484 8.10547C6.23307 8.26432 6.45052 8.48698 6.61719 8.77344C6.78385 9.05729 6.86719 9.39583 6.86719 9.78906C6.86719 10.2135 6.76172 10.5924 6.55078 10.9258C6.34245 11.2565 6.03385 11.5182 5.625 11.7109C5.21615 11.9036 4.71224 12 4.11328 12H0.695312ZM2.38672 10.6172H3.76563C4.23698 10.6172 4.58073 10.5273 4.79688 10.3477C5.01302 10.1654 5.12109 9.92318 5.12109 9.62109C5.12109 9.39974 5.06771 9.20443 4.96094 9.03516C4.85417 8.86589 4.70182 8.73307 4.50391 8.63672C4.30859 8.54036 4.07552 8.49219 3.80469 8.49219H2.38672V10.6172ZM2.38672 7.34766H3.64062C3.8724 7.34766 4.07813 7.30729 4.25781 7.22656C4.4401 7.14323 4.58333 7.02604 4.6875 6.875C4.79427 6.72396 4.84766 6.54297 4.84766 6.33203C4.84766 6.04297 4.74479 5.8099 4.53906 5.63281C4.33594 5.45573 4.04688 5.36719 3.67188 5.36719H2.38672V7.34766Z" fill="#14B8A6"/>
<path d="M7.13254 10.173L7.66449 2.62717L9.24288 3.20166L8.64579 8.36191L8.70252 8.38256L11.6789 4.08829L13.0303 4.58018L12.5431 9.79174L12.6031 9.8136L15.4663 5.46681L17.0447 6.0413L12.6018 12.1637L11.1936 11.6511L11.5185 6.70926L11.4651 6.68983L8.54074 10.6856L7.13254 10.173Z" fill="#14B8A6"/>
</svg>
