<svg width="13" height="11" viewBox="0 0 13 11" fill="none" xmlns="http://www.w3.org/2000/svg">
<path d="M0.695312 11V3H3.89844C4.48698 3 4.97786 3.08724 5.37109 3.26172C5.76432 3.4362 6.0599 3.67839 6.25781 3.98828C6.45573 4.29557 6.55469 4.64974 6.55469 5.05078C6.55469 5.36328 6.49219 5.63802 6.36719 5.875C6.24219 6.10937 6.07031 6.30208 5.85156 6.45312C5.63542 6.60156 5.38802 6.70703 5.10938 6.76953V6.84766C5.41406 6.86068 5.69922 6.94661 5.96484 7.10547C6.23307 7.26432 6.45052 7.48698 6.61719 7.77344C6.78385 8.05729 6.86719 8.39583 6.86719 8.78906C6.86719 9.21354 6.76172 9.59245 6.55078 9.92578C6.34245 10.2565 6.03385 10.5182 5.625 10.7109C5.21615 10.9036 4.71224 11 4.11328 11H0.695312ZM2.38672 9.61719H3.76563C4.23698 9.61719 4.58073 9.52734 4.79688 9.34766C5.01302 9.16536 5.12109 8.92318 5.12109 8.62109C5.12109 8.39974 5.06771 8.20443 4.96094 8.03516C4.85417 7.86589 4.70182 7.73307 4.50391 7.63672C4.30859 7.54036 4.07552 7.49219 3.80469 7.49219H2.38672V9.61719ZM2.38672 6.34766H3.64062C3.8724 6.34766 4.07813 6.30729 4.25781 6.22656C4.4401 6.14323 4.58333 6.02604 4.6875 5.875C4.79427 5.72396 4.84766 5.54297 4.84766 5.33203C4.84766 5.04297 4.74479 4.8099 4.53906 4.63281C4.33594 4.45573 4.04688 4.36719 3.67188 4.36719H2.38672V6.34766Z" fill="#14B8A6"/>
<path d="M6.6321 11L6.6321 3.72727H9.54403C10.0791 3.72727 10.5253 3.80658 10.8828 3.9652C11.2403 4.12382 11.509 4.34399 11.6889 4.62571C11.8688 4.90507 11.9588 5.22704 11.9588 5.59162C11.9588 5.87571 11.902 6.12547 11.7884 6.34091C11.6747 6.55398 11.5185 6.72917 11.3196 6.86648C11.1231 7.00142 10.8982 7.0973 10.6449 7.15412V7.22514C10.9219 7.23698 11.1811 7.3151 11.4226 7.45952C11.6664 7.60393 11.8641 7.80634 12.0156 8.06676C12.1671 8.32481 12.2429 8.63258 12.2429 8.99006C12.2429 9.37595 12.147 9.72041 11.9553 10.0234C11.7659 10.3241 11.4853 10.562 11.1136 10.7372C10.742 10.9124 10.2839 11 9.73935 11H6.6321ZM8.16974 9.7429H9.4233C9.8518 9.7429 10.1643 9.66122 10.3608 9.49787C10.5573 9.33215 10.6555 9.11198 10.6555 8.83736C10.6555 8.63613 10.607 8.45857 10.5099 8.30469C10.4129 8.1508 10.2744 8.03007 10.0945 7.94247C9.9169 7.85488 9.70502 7.81108 9.45881 7.81108H8.16974V9.7429ZM8.16974 6.7706H9.30966C9.52036 6.7706 9.70739 6.7339 9.87074 6.66051C10.0365 6.58475 10.1667 6.47822 10.2614 6.34091C10.3584 6.2036 10.407 6.03906 10.407 5.8473C10.407 5.58452 10.3134 5.37263 10.1264 5.21165C9.94176 5.05066 9.67898 4.97017 9.33807 4.97017H8.16974V6.7706Z" fill="#14B8A6"/>
</svg>
